  0
SECTION
  2
BLOCKS
  0
ENDSEC
  0
SECTION
  2
ENTITIES
  0
LINE
  8
0
 10
-38.0006
 20
0
 11
-0.000599861
 21
0
  0
LINE
  8
0
 10
-0.000599861
 20
0
 11
-0.000599861
 21
2050
  0
LINE
  8
0
 10
-0.000599861
 20
2050
 11
-38.0006
 21
2050
  0
LINE
  8
0
 10
-38.0006
 20
2050
 11
-38.0006
 21
0
  0
LINE
  8
0
 10
0
 20
0
 11
19
 21
0
  0
LINE
  8
0
 10
19
 20
0
 11
19
 21
2012
  0
LINE
  8
0
 10
19
 20
2012
 11
0
 21
2012
  0
LINE
  8
0
 10
0
 20
2012
 11
0
 21
0
  0
LINE
  8
0
 10
0
 20
2012
 11
2012
 21
2012
  0
LINE
  8
0
 10
2012
 20
2012
 11
2012
 21
2050
  0
LINE
  8
0
 10
2012
 20
2050
 11
0
 21
2050
  0
LINE
  8
0
 10
0
 20
2050
 11
0
 21
2012
  0
LINE
  8
0
 10
19.003
 20
95
 11
939.497
 21
95
  0
LINE
  8
0
 10
939.497
 20
95
 11
939.497
 21
114
  0
LINE
  8
0
 10
939.497
 20
114
 11
19.003
 21
114
  0
LINE
  8
0
 10
19.003
 20
114
 11
19.003
 21
95
  0
LINE
  8
0
 10
19.003
 20
727.667
 11
939.497
 21
727.667
  0
LINE
  8
0
 10
939.497
 20
727.667
 11
939.497
 21
746.667
  0
LINE
  8
0
 10
939.497
 20
746.667
 11
19.003
 21
746.667
  0
LINE
  8
0
 10
19.003
 20
746.667
 11
19.003
 21
727.667
  0
LINE
  8
0
 10
19.003
 20
1044
 11
939.497
 21
1044
  0
LINE
  8
0
 10
939.497
 20
1044
 11
939.497
 21
1063
  0
LINE
  8
0
 10
939.497
 20
1063
 11
19.003
 21
1063
  0
LINE
  8
0
 10
19.003
 20
1063
 11
19.003
 21
1044
  0
LINE
  8
0
 10
19.003
 20
1360.33
 11
939.497
 21
1360.33
  0
LINE
  8
0
 10
939.497
 20
1360.33
 11
939.497
 21
1379.33
  0
LINE
  8
0
 10
939.497
 20
1379.33
 11
19.003
 21
1379.33
  0
LINE
  8
0
 10
19.003
 20
1379.33
 11
19.003
 21
1360.33
  0
LINE
  8
0
 10
19.003
 20
1676.67
 11
939.497
 21
1676.67
  0
LINE
  8
0
 10
939.497
 20
1676.67
 11
939.497
 21
1695.67
  0
LINE
  8
0
 10
939.497
 20
1695.67
 11
19.003
 21
1695.67
  0
LINE
  8
0
 10
19.003
 20
1695.67
 11
19.003
 21
1676.67
  0
LINE
  8
0
 10
19.003
 20
1993
 11
939.497
 21
1993
  0
LINE
  8
0
 10
939.497
 20
1993
 11
939.497
 21
2012
  0
LINE
  8
0
 10
939.497
 20
2012
 11
19.003
 21
2012
  0
LINE
  8
0
 10
19.003
 20
2012
 11
19.003
 21
1993
  0
LINE
  8
0
 10
31
 20
118
 11
50
 21
118
  0
LINE
  8
0
 10
50
 20
118
 11
50
 21
128
  0
LINE
  8
0
 10
50
 20
128
 11
43.6667
 21
128
  0
LINE
  8
0
 10
43.6667
 20
128
 11
43.6667
 21
133
  0
LINE
  8
0
 10
43.6667
 20
133
 11
50
 21
133
  0
LINE
  8
0
 10
50
 20
133
 11
50
 21
251.417
  0
LINE
  8
0
 10
50
 20
251.417
 11
31
 21
251.417
  0
LINE
  8
0
 10
31
 20
251.417
 11
31
 21
118
  0
LINE
  8
0
 10
31
 20
271.417
 11
50
 21
271.417
  0
LINE
  8
0
 10
50
 20
271.417
 11
50
 21
281.417
  0
LINE
  8
0
 10
50
 20
281.417
 11
43.6667
 21
281.417
  0
LINE
  8
0
 10
43.6667
 20
281.417
 11
43.6667
 21
286.417
  0
LINE
  8
0
 10
43.6667
 20
286.417
 11
50
 21
286.417
  0
LINE
  8
0
 10
50
 20
286.417
 11
50
 21
404.833
  0
LINE
  8
0
 10
50
 20
404.833
 11
31
 21
404.833
  0
LINE
  8
0
 10
31
 20
404.833
 11
31
 21
271.417
  0
LINE
  8
0
 10
31
 20
424.833
 11
50
 21
424.833
  0
LINE
  8
0
 10
50
 20
424.833
 11
50
 21
434.833
  0
LINE
  8
0
 10
50
 20
434.833
 11
43.6667
 21
434.833
  0
LINE
  8
0
 10
43.6667
 20
434.833
 11
43.6667
 21
439.833
  0
LINE
  8
0
 10
43.6667
 20
439.833
 11
50
 21
439.833
  0
LINE
  8
0
 10
50
 20
439.833
 11
50
 21
558.25
  0
LINE
  8
0
 10
50
 20
558.25
 11
31
 21
558.25
  0
LINE
  8
0
 10
31
 20
558.25
 11
31
 21
424.833
  0
LINE
  8
0
 10
31
 20
578.25
 11
50
 21
578.25
  0
LINE
  8
0
 10
50
 20
578.25
 11
50
 21
588.25
  0
LINE
  8
0
 10
50
 20
588.25
 11
43.6667
 21
588.25
  0
LINE
  8
0
 10
43.6667
 20
588.25
 11
43.6667
 21
593.25
  0
LINE
  8
0
 10
43.6667
 20
593.25
 11
50
 21
593.25
  0
LINE
  8
0
 10
50
 20
593.25
 11
50
 21
711.667
  0
LINE
  8
0
 10
50
 20
711.667
 11
31
 21
711.667
  0
LINE
  8
0
 10
31
 20
711.667
 11
31
 21
578.25
  0
LINE
  8
0
 10
43.6697
 20
128.003
 11
445.08
 21
128.003
  0
LINE
  8
0
 10
445.08
 20
128.003
 11
445.08
 21
132.997
  0
LINE
  8
0
 10
445.08
 20
132.997
 11
43.6697
 21
132.997
  0
LINE
  8
0
 10
43.6697
 20
132.997
 11
43.6697
 21
128.003
  0
LINE
  8
0
 10
43.6697
 20
281.42
 11
445.08
 21
281.42
  0
LINE
  8
0
 10
445.08
 20
281.42
 11
445.08
 21
286.414
  0
LINE
  8
0
 10
445.08
 20
286.414
 11
43.6697
 21
286.414
  0
LINE
  8
0
 10
43.6697
 20
286.414
 11
43.6697
 21
281.42
  0
LINE
  8
0
 10
43.6697
 20
434.836
 11
445.08
 21
434.836
  0
LINE
  8
0
 10
445.08
 20
434.836
 11
445.08
 21
439.83
  0
LINE
  8
0
 10
445.08
 20
439.83
 11
43.6697
 21
439.83
  0
LINE
  8
0
 10
43.6697
 20
439.83
 11
43.6697
 21
434.836
  0
LINE
  8
0
 10
43.6697
 20
588.253
 11
445.08
 21
588.253
  0
LINE
  8
0
 10
445.08
 20
588.253
 11
445.08
 21
593.247
  0
LINE
  8
0
 10
445.08
 20
593.247
 11
43.6697
 21
593.247
  0
LINE
  8
0
 10
43.6697
 20
593.247
 11
43.6697
 21
588.253
  0
LINE
  8
0
 10
438.75
 20
118
 11
457.75
 21
118
  0
LINE
  8
0
 10
457.75
 20
118
 11
457.75
 21
251.417
  0
LINE
  8
0
 10
457.75
 20
251.417
 11
438.75
 21
251.417
  0
LINE
  8
0
 10
438.75
 20
251.417
 11
438.75
 21
133
  0
LINE
  8
0
 10
438.75
 20
133
 11
445.083
 21
133
  0
LINE
  8
0
 10
445.083
 20
133
 11
445.083
 21
128
  0
LINE
  8
0
 10
445.083
 20
128
 11
438.75
 21
128
  0
LINE
  8
0
 10
438.75
 20
128
 11
438.75
 21
118
  0
LINE
  8
0
 10
438.75
 20
271.417
 11
457.75
 21
271.417
  0
LINE
  8
0
 10
457.75
 20
271.417
 11
457.75
 21
404.833
  0
LINE
  8
0
 10
457.75
 20
404.833
 11
438.75
 21
404.833
  0
LINE
  8
0
 10
438.75
 20
404.833
 11
438.75
 21
286.417
  0
LINE
  8
0
 10
438.75
 20
286.417
 11
445.083
 21
286.417
  0
LINE
  8
0
 10
445.083
 20
286.417
 11
445.083
 21
281.417
  0
LINE
  8
0
 10
445.083
 20
281.417
 11
438.75
 21
281.417
  0
LINE
  8
0
 10
438.75
 20
281.417
 11
438.75
 21
271.417
  0
LINE
  8
0
 10
438.75
 20
424.833
 11
457.75
 21
424.833
  0
LINE
  8
0
 10
457.75
 20
424.833
 11
457.75
 21
558.25
  0
LINE
  8
0
 10
457.75
 20
558.25
 11
438.75
 21
558.25
  0
LINE
  8
0
 10
438.75
 20
558.25
 11
438.75
 21
439.833
  0
LINE
  8
0
 10
438.75
 20
439.833
 11
445.083
 21
439.833
  0
LINE
  8
0
 10
445.083
 20
439.833
 11
445.083
 21
434.833
  0
LINE
  8
0
 10
445.083
 20
434.833
 11
438.75
 21
434.833
  0
LINE
  8
0
 10
438.75
 20
434.833
 11
438.75
 21
424.833
  0
LINE
  8
0
 10
438.75
 20
578.25
 11
457.75
 21
578.25
  0
LINE
  8
0
 10
457.75
 20
578.25
 11
457.75
 21
711.667
  0
LINE
  8
0
 10
457.75
 20
711.667
 11
438.75
 21
711.667
  0
LINE
  8
0
 10
438.75
 20
711.667
 11
438.75
 21
593.25
  0
LINE
  8
0
 10
438.75
 20
593.25
 11
445.083
 21
593.25
  0
LINE
  8
0
 10
445.083
 20
593.25
 11
445.083
 21
588.25
  0
LINE
  8
0
 10
445.083
 20
588.25
 11
438.75
 21
588.25
  0
LINE
  8
0
 10
438.75
 20
588.25
 11
438.75
 21
578.25
  0
LINE
  8
0
 10
469.75
 20
114.003
 11
488.75
 21
114.003
  0
LINE
  8
0
 10
488.75
 20
114.003
 11
488.75
 21
727.664
  0
LINE
  8
0
 10
488.75
 20
727.664
 11
469.75
 21
727.664
  0
LINE
  8
0
 10
469.75
 20
727.664
 11
469.75
 21
114.003
  0
LINE
  8
0
 10
500.75
 20
118
 11
519.75
 21
118
  0
LINE
  8
0
 10
519.75
 20
118
 11
519.75
 21
128
  0
LINE
  8
0
 10
519.75
 20
128
 11
513.417
 21
128
  0
LINE
  8
0
 10
513.417
 20
128
 11
513.417
 21
133
  0
LINE
  8
0
 10
513.417
 20
133
 11
519.75
 21
133
  0
LINE
  8
0
 10
519.75
 20
133
 11
519.75
 21
251.417
  0
LINE
  8
0
 10
519.75
 20
251.417
 11
500.75
 21
251.417
  0
LINE
  8
0
 10
500.75
 20
251.417
 11
500.75
 21
118
  0
LINE
  8
0
 10
500.75
 20
271.417
 11
519.75
 21
271.417
  0
LINE
  8
0
 10
519.75
 20
271.417
 11
519.75
 21
281.417
  0
LINE
  8
0
 10
519.75
 20
281.417
 11
513.417
 21
281.417
  0
LINE
  8
0
 10
513.417
 20
281.417
 11
513.417
 21
286.417
  0
LINE
  8
0
 10
513.417
 20
286.417
 11
519.75
 21
286.417
  0
LINE
  8
0
 10
519.75
 20
286.417
 11
519.75
 21
404.833
  0
LINE
  8
0
 10
519.75
 20
404.833
 11
500.75
 21
404.833
  0
LINE
  8
0
 10
500.75
 20
404.833
 11
500.75
 21
271.417
  0
LINE
  8
0
 10
500.75
 20
424.833
 11
519.75
 21
424.833
  0
LINE
  8
0
 10
519.75
 20
424.833
 11
519.75
 21
434.833
  0
LINE
  8
0
 10
519.75
 20
434.833
 11
513.417
 21
434.833
  0
LINE
  8
0
 10
513.417
 20
434.833
 11
513.417
 21
439.833
  0
LINE
  8
0
 10
513.417
 20
439.833
 11
519.75
 21
439.833
  0
LINE
  8
0
 10
519.75
 20
439.833
 11
519.75
 21
558.25
  0
LINE
  8
0
 10
519.75
 20
558.25
 11
500.75
 21
558.25
  0
LINE
  8
0
 10
500.75
 20
558.25
 11
500.75
 21
424.833
  0
LINE
  8
0
 10
500.75
 20
578.25
 11
519.75
 21
578.25
  0
LINE
  8
0
 10
519.75
 20
578.25
 11
519.75
 21
588.25
  0
LINE
  8
0
 10
519.75
 20
588.25
 11
513.417
 21
588.25
  0
LINE
  8
0
 10
513.417
 20
588.25
 11
513.417
 21
593.25
  0
LINE
  8
0
 10
513.417
 20
593.25
 11
519.75
 21
593.25
  0
LINE
  8
0
 10
519.75
 20
593.25
 11
519.75
 21
711.667
  0
LINE
  8
0
 10
519.75
 20
711.667
 11
500.75
 21
711.667
  0
LINE
  8
0
 10
500.75
 20
711.667
 11
500.75
 21
578.25
  0
LINE
  8
0
 10
513.42
 20
128.003
 11
914.83
 21
128.003
  0
LINE
  8
0
 10
914.83
 20
128.003
 11
914.83
 21
132.997
  0
LINE
  8
0
 10
914.83
 20
132.997
 11
513.42
 21
132.997
  0
LINE
  8
0
 10
513.42
 20
132.997
 11
513.42
 21
128.003
  0
LINE
  8
0
 10
513.42
 20
281.42
 11
914.83
 21
281.42
  0
LINE
  8
0
 10
914.83
 20
281.42
 11
914.83
 21
286.414
  0
LINE
  8
0
 10
914.83
 20
286.414
 11
513.42
 21
286.414
  0
LINE
  8
0
 10
513.42
 20
286.414
 11
513.42
 21
281.42
  0
LINE
  8
0
 10
513.42
 20
434.836
 11
914.83
 21
434.836
  0
LINE
  8
0
 10
914.83
 20
434.836
 11
914.83
 21
439.83
  0
LINE
  8
0
 10
914.83
 20
439.83
 11
513.42
 21
439.83
  0
LINE
  8
0
 10
513.42
 20
439.83
 11
513.42
 21
434.836
  0
LINE
  8
0
 10
513.42
 20
588.253
 11
914.83
 21
588.253
  0
LINE
  8
0
 10
914.83
 20
588.253
 11
914.83
 21
593.247
  0
LINE
  8
0
 10
914.83
 20
593.247
 11
513.42
 21
593.247
  0
LINE
  8
0
 10
513.42
 20
593.247
 11
513.42
 21
588.253
  0
LINE
  8
0
 10
908.5
 20
118
 11
927.5
 21
118
  0
LINE
  8
0
 10
927.5
 20
118
 11
927.5
 21
251.417
  0
LINE
  8
0
 10
927.5
 20
251.417
 11
908.5
 21
251.417
  0
LINE
  8
0
 10
908.5
 20
251.417
 11
908.5
 21
133
  0
LINE
  8
0
 10
908.5
 20
133
 11
914.833
 21
133
  0
LINE
  8
0
 10
914.833
 20
133
 11
914.833
 21
128
  0
LINE
  8
0
 10
914.833
 20
128
 11
908.5
 21
128
  0
LINE
  8
0
 10
908.5
 20
128
 11
908.5
 21
118
  0
LINE
  8
0
 10
908.5
 20
271.417
 11
927.5
 21
271.417
  0
LINE
  8
0
 10
927.5
 20
271.417
 11
927.5
 21
404.833
  0
LINE
  8
0
 10
927.5
 20
404.833
 11
908.5
 21
404.833
  0
LINE
  8
0
 10
908.5
 20
404.833
 11
908.5
 21
286.417
  0
LINE
  8
0
 10
908.5
 20
286.417
 11
914.833
 21
286.417
  0
LINE
  8
0
 10
914.833
 20
286.417
 11
914.833
 21
281.417
  0
LINE
  8
0
 10
914.833
 20
281.417
 11
908.5
 21
281.417
  0
LINE
  8
0
 10
908.5
 20
281.417
 11
908.5
 21
271.417
  0
LINE
  8
0
 10
908.5
 20
424.833
 11
927.5
 21
424.833
  0
LINE
  8
0
 10
927.5
 20
424.833
 11
927.5
 21
558.25
  0
LINE
  8
0
 10
927.5
 20
558.25
 11
908.5
 21
558.25
  0
LINE
  8
0
 10
908.5
 20
558.25
 11
908.5
 21
439.833
  0
LINE
  8
0
 10
908.5
 20
439.833
 11
914.833
 21
439.833
  0
LINE
  8
0
 10
914.833
 20
439.833
 11
914.833
 21
434.833
  0
LINE
  8
0
 10
914.833
 20
434.833
 11
908.5
 21
434.833
  0
LINE
  8
0
 10
908.5
 20
434.833
 11
908.5
 21
424.833
  0
LINE
  8
0
 10
908.5
 20
578.25
 11
927.5
 21
578.25
  0
LINE
  8
0
 10
927.5
 20
578.25
 11
927.5
 21
711.667
  0
LINE
  8
0
 10
927.5
 20
711.667
 11
908.5
 21
711.667
  0
LINE
  8
0
 10
908.5
 20
711.667
 11
908.5
 21
593.25
  0
LINE
  8
0
 10
908.5
 20
593.25
 11
914.833
 21
593.25
  0
LINE
  8
0
 10
914.833
 20
593.25
 11
914.833
 21
588.25
  0
LINE
  8
0
 10
914.833
 20
588.25
 11
908.5
 21
588.25
  0
LINE
  8
0
 10
908.5
 20
588.25
 11
908.5
 21
578.25
  0
LINE
  8
0
 10
939.499
 20
0
 11
958.499
 21
0
  0
LINE
  8
0
 10
958.499
 20
0
 11
958.499
 21
2012
  0
LINE
  8
0
 10
958.499
 20
2012
 11
939.499
 21
2012
  0
LINE
  8
0
 10
939.499
 20
2012
 11
939.499
 21
0
  0
LINE
  8
0
 10
958.5
 20
0
 11
977.5
 21
0
  0
LINE
  8
0
 10
977.5
 20
0
 11
977.5
 21
2012
  0
LINE
  8
0
 10
977.5
 20
2012
 11
958.5
 21
2012
  0
LINE
  8
0
 10
958.5
 20
2012
 11
958.5
 21
0
  0
LINE
  8
0
 10
977.503
 20
95
 11
1993
 21
95
  0
LINE
  8
0
 10
1993
 20
95
 11
1993
 21
114
  0
LINE
  8
0
 10
1993
 20
114
 11
977.503
 21
114
  0
LINE
  8
0
 10
977.503
 20
114
 11
977.503
 21
95
  0
LINE
  8
0
 10
977.503
 20
1676.67
 11
1993
 21
1676.67
  0
LINE
  8
0
 10
1993
 20
1676.67
 11
1993
 21
1695.67
  0
LINE
  8
0
 10
1993
 20
1695.67
 11
977.503
 21
1695.67
  0
LINE
  8
0
 10
977.503
 20
1695.67
 11
977.503
 21
1676.67
  0
LINE
  8
0
 10
977.503
 20
1993
 11
1993
 21
1993
  0
LINE
  8
0
 10
1993
 20
1993
 11
1993
 21
2012
  0
LINE
  8
0
 10
1993
 20
2012
 11
977.503
 21
2012
  0
LINE
  8
0
 10
977.503
 20
2012
 11
977.503
 21
1993
  0
LINE
  8
0
 10
1537.5
 20
114.003
 11
1556.5
 21
114.003
  0
LINE
  8
0
 10
1556.5
 20
114.003
 11
1556.5
 21
1676.66
  0
LINE
  8
0
 10
1556.5
 20
1676.66
 11
1537.5
 21
1676.66
  0
LINE
  8
0
 10
1537.5
 20
1676.66
 11
1537.5
 21
114.003
  0
LINE
  8
0
 10
1556.5
 20
411.333
 11
1993
 21
411.333
  0
LINE
  8
0
 10
1993
 20
411.333
 11
1993
 21
430.333
  0
LINE
  8
0
 10
1993
 20
430.333
 11
1556.5
 21
430.333
  0
LINE
  8
0
 10
1556.5
 20
430.333
 11
1556.5
 21
411.333
  0
LINE
  8
0
 10
1556.5
 20
727.667
 11
1993
 21
727.667
  0
LINE
  8
0
 10
1993
 20
727.667
 11
1993
 21
746.667
  0
LINE
  8
0
 10
1993
 20
746.667
 11
1556.5
 21
746.667
  0
LINE
  8
0
 10
1556.5
 20
746.667
 11
1556.5
 21
727.667
  0
LINE
  8
0
 10
1556.5
 20
1044
 11
1993
 21
1044
  0
LINE
  8
0
 10
1993
 20
1044
 11
1993
 21
1063
  0
LINE
  8
0
 10
1993
 20
1063
 11
1556.5
 21
1063
  0
LINE
  8
0
 10
1556.5
 20
1063
 11
1556.5
 21
1044
  0
LINE
  8
0
 10
1556.5
 20
1360.33
 11
1993
 21
1360.33
  0
LINE
  8
0
 10
1993
 20
1360.33
 11
1993
 21
1379.33
  0
LINE
  8
0
 10
1993
 20
1379.33
 11
1556.5
 21
1379.33
  0
LINE
  8
0
 10
1556.5
 20
1379.33
 11
1556.5
 21
1360.33
  0
LINE
  8
0
 10
1993
 20
0
 11
2012
 21
0
  0
LINE
  8
0
 10
2012
 20
0
 11
2012
 21
2012
  0
LINE
  8
0
 10
2012
 20
2012
 11
1993
 21
2012
  0
LINE
  8
0
 10
1993
 20
2012
 11
1993
 21
0
  0
ENDSEC
  0
SECTION
  2
OBJECTS
  0
DICTIONARY
  0
ENDSEC
  0
EOF
