  0
SECTION
  2
BLOCKS
  0
ENDSEC
  0
SECTION
  2
ENTITIES
  0
LINE
  8
0
 10
958.5
 20
0
 11
977.5
 21
0
  0
LINE
  8
0
 10
977.5
 20
0
 11
977.5
 21
441
  0
LINE
  8
0
 10
977.5
 20
441
 11
964.833
 21
441
  0
LINE
  8
0
 10
964.833
 20
441
 11
964.833
 21
446
  0
LINE
  8
0
 10
964.833
 20
446
 11
958.5
 21
446
  0
LINE
  8
0
 10
958.5
 20
446
 11
958.5
 21
0
  0
LINE
  8
0
 10
963.5
 20
-24
 11
1432.75
 21
-24
  0
LINE
  8
0
 10
1432.75
 20
-24
 11
1432.75
 21
-5
  0
LINE
  8
0
 10
1432.75
 20
-5
 11
963.5
 21
-5
  0
LINE
  8
0
 10
963.5
 20
-5
 11
963.5
 21
-24
  0
LINE
  8
0
 10
964.843
 20
441.004
 11
2005.66
 21
441.004
  0
LINE
  8
0
 10
2005.66
 20
441.004
 11
2005.66
 21
446.004
  0
LINE
  8
0
 10
2005.66
 20
446.004
 11
964.843
 21
446.004
  0
LINE
  8
0
 10
964.843
 20
446.004
 11
964.843
 21
441.004
  0
LINE
  8
0
 10
1442.75
 20
-24
 11
1912
 21
-24
  0
LINE
  8
0
 10
1912
 20
-24
 11
1912
 21
-5
  0
LINE
  8
0
 10
1912
 20
-5
 11
1442.75
 21
-5
  0
LINE
  8
0
 10
1442.75
 20
-5
 11
1442.75
 21
-24
  0
LINE
  8
0
 10
1537.5
 20
0
 11
1556.5
 21
0
  0
LINE
  8
0
 10
1556.5
 20
0
 11
1556.5
 21
441
  0
LINE
  8
0
 10
1556.5
 20
441
 11
1537.5
 21
441
  0
LINE
  8
0
 10
1537.5
 20
441
 11
1537.5
 21
0
  0
LINE
  8
0
 10
1917
 20
-19.0001
 11
2012
 21
-19.0001
  0
LINE
  8
0
 10
2012
 20
-19.0001
 11
2012
 21
-9.91821e-05
  0
LINE
  8
0
 10
2012
 20
-9.91821e-05
 11
1917
 21
-9.91821e-05
  0
LINE
  8
0
 10
1917
 20
-9.91821e-05
 11
1917
 21
-19.0001
  0
LINE
  8
0
 10
1993
 20
0
 11
2012
 21
0
  0
LINE
  8
0
 10
2012
 20
0
 11
2012
 21
446
  0
LINE
  8
0
 10
2012
 20
446
 11
2005.67
 21
446
  0
LINE
  8
0
 10
2005.67
 20
446
 11
2005.67
 21
441
  0
LINE
  8
0
 10
2005.67
 20
441
 11
1993
 21
441
  0
LINE
  8
0
 10
1993
 20
441
 11
1993
 21
0
  0
ENDSEC
  0
SECTION
  2
OBJECTS
  0
DICTIONARY
  0
ENDSEC
  0
EOF
