  0
SECTION
  2
BLOCKS
  0
ENDSEC
  0
SECTION
  2
ENTITIES
  0
LINE
  8
0
 10
0
 20
0
 11
19
 21
0
  0
LINE
  8
0
 10
19
 20
0
 11
19
 21
441
  0
LINE
  8
0
 10
19
 20
441
 11
6.33333
 21
441
  0
LINE
  8
0
 10
6.33333
 20
441
 11
6.33333
 21
446
  0
LINE
  8
0
 10
6.33333
 20
446
 11
0
 21
446
  0
LINE
  8
0
 10
0
 20
446
 11
0
 21
0
  0
LINE
  8
0
 10
5
 20
-24
 11
474.25
 21
-24
  0
LINE
  8
0
 10
474.25
 20
-24
 11
474.25
 21
-5
  0
LINE
  8
0
 10
474.25
 20
-5
 11
5
 21
-5
  0
LINE
  8
0
 10
5
 20
-5
 11
5
 21
-24
  0
LINE
  8
0
 10
6.3334
 20
441.004
 11
952.148
 21
441.004
  0
LINE
  8
0
 10
952.148
 20
441.004
 11
952.148
 21
446.004
  0
LINE
  8
0
 10
952.148
 20
446.004
 11
6.3334
 21
446.004
  0
LINE
  8
0
 10
6.3334
 20
446.004
 11
6.3334
 21
441.004
  0
LINE
  8
0
 10
31
 20
2
 11
457.75
 21
2
  0
LINE
  8
0
 10
457.75
 20
2
 11
457.75
 21
433
  0
LINE
  8
0
 10
457.75
 20
433
 11
31
 21
433
  0
LINE
  8
0
 10
31
 20
433
 11
31
 21
2
  0
LINE
  8
0
 10
50
 20
21
 11
50
 21
414
  0
LINE
  8
0
 10
50
 20
414
 11
438.75
 21
414
  0
LINE
  8
0
 10
438.75
 20
414
 11
438.75
 21
21
  0
LINE
  8
0
 10
438.75
 20
21
 11
50
 21
21
  0
LINE
  8
0
 10
469.75
 20
0
 11
488.75
 21
0
  0
LINE
  8
0
 10
488.75
 20
0
 11
488.75
 21
441
  0
LINE
  8
0
 10
488.75
 20
441
 11
469.75
 21
441
  0
LINE
  8
0
 10
469.75
 20
441
 11
469.75
 21
0
  0
LINE
  8
0
 10
484.25
 20
-24
 11
953.5
 21
-24
  0
LINE
  8
0
 10
953.5
 20
-24
 11
953.5
 21
-5
  0
LINE
  8
0
 10
953.5
 20
-5
 11
484.25
 21
-5
  0
LINE
  8
0
 10
484.25
 20
-5
 11
484.25
 21
-24
  0
LINE
  8
0
 10
500.75
 20
2
 11
927.5
 21
2
  0
LINE
  8
0
 10
927.5
 20
2
 11
927.5
 21
433
  0
LINE
  8
0
 10
927.5
 20
433
 11
500.75
 21
433
  0
LINE
  8
0
 10
500.75
 20
433
 11
500.75
 21
2
  0
LINE
  8
0
 10
519.75
 20
21
 11
519.75
 21
414
  0
LINE
  8
0
 10
519.75
 20
414
 11
908.5
 21
414
  0
LINE
  8
0
 10
908.5
 20
414
 11
908.5
 21
21
  0
LINE
  8
0
 10
908.5
 20
21
 11
519.75
 21
21
  0
LINE
  8
0
 10
939.499
 20
0
 11
958.499
 21
0
  0
LINE
  8
0
 10
958.499
 20
0
 11
958.499
 21
446
  0
LINE
  8
0
 10
958.499
 20
446
 11
952.167
 21
446
  0
LINE
  8
0
 10
952.167
 20
446
 11
952.167
 21
441
  0
LINE
  8
0
 10
952.167
 20
441
 11
939.499
 21
441
  0
LINE
  8
0
 10
939.499
 20
441
 11
939.499
 21
0
  0
ENDSEC
  0
SECTION
  2
OBJECTS
  0
DICTIONARY
  0
ENDSEC
  0
EOF
