  0
SECTION
  2
BLOCKS
  0
ENDSEC
  0
SECTION
  2
ENTITIES
  0
LINE
  8
0
 10
-38.0006
 20
-24
 11
-0.000599861
 21
-24
  0
LINE
  8
0
 10
-0.000599861
 20
-24
 11
-0.000599861
 21
446
  0
LINE
  8
0
 10
-0.000599861
 20
446
 11
-38.0006
 21
446
  0
LINE
  8
0
 10
-38.0006
 20
446
 11
-38.0006
 21
-24
  0
LINE
  8
0
 10
0
 20
0
 11
19
 21
0
  0
LINE
  8
0
 10
19
 20
0
 11
19
 21
441
  0
LINE
  8
0
 10
19
 20
441
 11
6.33333
 21
441
  0
LINE
  8
0
 10
6.33333
 20
441
 11
6.33333
 21
446
  0
LINE
  8
0
 10
6.33333
 20
446
 11
0
 21
446
  0
LINE
  8
0
 10
0
 20
446
 11
0
 21
0
  0
LINE
  8
0
 10
5
 20
-24
 11
474.25
 21
-24
  0
LINE
  8
0
 10
474.25
 20
-24
 11
474.25
 21
-5
  0
LINE
  8
0
 10
474.25
 20
-5
 11
5
 21
-5
  0
LINE
  8
0
 10
5
 20
-5
 11
5
 21
-24
  0
LINE
  8
0
 10
6.3334
 20
441.004
 11
952.148
 21
441.004
  0
LINE
  8
0
 10
952.148
 20
441.004
 11
952.148
 21
446.004
  0
LINE
  8
0
 10
952.148
 20
446.004
 11
6.3334
 21
446.004
  0
LINE
  8
0
 10
6.3334
 20
446.004
 11
6.3334
 21
441.004
  0
LINE
  8
0
 10
398.25
 20
-24.2657
 11
399.504
 21
-25.9006
  0
LINE
  8
0
 10
399.504
 20
-25.9006
 11
401.403
 21
-30.483
  0
LINE
  8
0
 10
401.403
 20
-30.483
 11
402.05
 21
-35.4006
  0
LINE
  8
0
 10
402.05
 20
-35.4006
 11
401.403
 21
-40.3182
  0
LINE
  8
0
 10
401.403
 20
-40.3182
 11
399.504
 21
-44.9006
  0
LINE
  8
0
 10
399.504
 20
-44.9006
 11
398.647
 21
-46.0178
  0
LINE
  8
0
 10
398.647
 20
-46.0178
 11
398.897
 21
-47.9182
  0
LINE
  8
0
 10
398.897
 20
-47.9182
 11
400.796
 21
-52.5006
  0
LINE
  8
0
 10
400.796
 20
-52.5006
 11
403.815
 21
-56.4356
  0
LINE
  8
0
 10
403.815
 20
-56.4356
 11
407.75
 21
-59.4551
  0
LINE
  8
0
 10
407.75
 20
-59.4551
 11
412.332
 21
-61.3532
  0
LINE
  8
0
 10
412.332
 20
-61.3532
 11
417.25
 21
-62.0006
  0
LINE
  8
0
 10
417.25
 20
-62.0006
 11
422.168
 21
-61.3532
  0
LINE
  8
0
 10
422.168
 20
-61.3532
 11
426.75
 21
-59.4551
  0
LINE
  8
0
 10
426.75
 20
-59.4551
 11
430.685
 21
-56.4356
  0
LINE
  8
0
 10
430.685
 20
-56.4356
 11
433.704
 21
-52.5006
  0
LINE
  8
0
 10
433.704
 20
-52.5006
 11
435.603
 21
-47.9182
  0
LINE
  8
0
 10
435.603
 20
-47.9182
 11
435.853
 21
-46.0178
  0
LINE
  8
0
 10
435.853
 20
-46.0178
 11
434.996
 21
-44.9006
  0
LINE
  8
0
 10
434.996
 20
-44.9006
 11
433.097
 21
-40.3182
  0
LINE
  8
0
 10
433.097
 20
-40.3182
 11
432.45
 21
-35.4006
  0
LINE
  8
0
 10
432.45
 20
-35.4006
 11
433.097
 21
-30.483
  0
LINE
  8
0
 10
433.097
 20
-30.483
 11
434.996
 21
-25.9006
  0
LINE
  8
0
 10
434.996
 20
-25.9006
 11
436.25
 21
-24.2657
  0
LINE
  8
0
 10
436.25
 20
-24.2657
 11
436.25
 21
-24.0006
  0
LINE
  8
0
 10
436.25
 20
-24.0006
 11
398.25
 21
-24.0006
  0
LINE
  8
0
 10
398.25
 20
-24.0006
 11
398.25
 21
-24.2657
  0
LINE
  8
0
 10
484.25
 20
-24
 11
953.5
 21
-24
  0
LINE
  8
0
 10
953.5
 20
-24
 11
953.5
 21
-5
  0
LINE
  8
0
 10
953.5
 20
-5
 11
484.25
 21
-5
  0
LINE
  8
0
 10
484.25
 20
-5
 11
484.25
 21
-24
  0
LINE
  8
0
 10
522.25
 20
-24.2657
 11
523.504
 21
-25.9006
  0
LINE
  8
0
 10
523.504
 20
-25.9006
 11
525.403
 21
-30.483
  0
LINE
  8
0
 10
525.403
 20
-30.483
 11
526.05
 21
-35.4006
  0
LINE
  8
0
 10
526.05
 20
-35.4006
 11
525.403
 21
-40.3182
  0
LINE
  8
0
 10
525.403
 20
-40.3182
 11
523.504
 21
-44.9006
  0
LINE
  8
0
 10
523.504
 20
-44.9006
 11
522.647
 21
-46.0178
  0
LINE
  8
0
 10
522.647
 20
-46.0178
 11
522.897
 21
-47.9182
  0
LINE
  8
0
 10
522.897
 20
-47.9182
 11
524.796
 21
-52.5006
  0
LINE
  8
0
 10
524.796
 20
-52.5006
 11
527.815
 21
-56.4356
  0
LINE
  8
0
 10
527.815
 20
-56.4356
 11
531.75
 21
-59.4551
  0
LINE
  8
0
 10
531.75
 20
-59.4551
 11
536.332
 21
-61.3532
  0
LINE
  8
0
 10
536.332
 20
-61.3532
 11
541.25
 21
-62.0006
  0
LINE
  8
0
 10
541.25
 20
-62.0006
 11
546.168
 21
-61.3532
  0
LINE
  8
0
 10
546.168
 20
-61.3532
 11
550.75
 21
-59.4551
  0
LINE
  8
0
 10
550.75
 20
-59.4551
 11
554.685
 21
-56.4356
  0
LINE
  8
0
 10
554.685
 20
-56.4356
 11
557.704
 21
-52.5006
  0
LINE
  8
0
 10
557.704
 20
-52.5006
 11
559.603
 21
-47.9182
  0
LINE
  8
0
 10
559.603
 20
-47.9182
 11
559.853
 21
-46.0178
  0
LINE
  8
0
 10
559.853
 20
-46.0178
 11
558.996
 21
-44.9006
  0
LINE
  8
0
 10
558.996
 20
-44.9006
 11
557.097
 21
-40.3182
  0
LINE
  8
0
 10
557.097
 20
-40.3182
 11
556.45
 21
-35.4006
  0
LINE
  8
0
 10
556.45
 20
-35.4006
 11
557.097
 21
-30.483
  0
LINE
  8
0
 10
557.097
 20
-30.483
 11
558.996
 21
-25.9006
  0
LINE
  8
0
 10
558.996
 20
-25.9006
 11
560.25
 21
-24.2657
  0
LINE
  8
0
 10
560.25
 20
-24.2657
 11
560.25
 21
-24.0006
  0
LINE
  8
0
 10
560.25
 20
-24.0006
 11
522.25
 21
-24.0006
  0
LINE
  8
0
 10
522.25
 20
-24.0006
 11
522.25
 21
-24.2657
  0
LINE
  8
0
 10
939.499
 20
0
 11
958.499
 21
0
  0
LINE
  8
0
 10
958.499
 20
0
 11
958.499
 21
446
  0
LINE
  8
0
 10
958.499
 20
446
 11
952.167
 21
446
  0
LINE
  8
0
 10
952.167
 20
446
 11
952.167
 21
441
  0
LINE
  8
0
 10
952.167
 20
441
 11
939.499
 21
441
  0
LINE
  8
0
 10
939.499
 20
441
 11
939.499
 21
0
  0
LINE
  8
0
 10
958.5
 20
0
 11
977.5
 21
0
  0
LINE
  8
0
 10
977.5
 20
0
 11
977.5
 21
441
  0
LINE
  8
0
 10
977.5
 20
441
 11
964.833
 21
441
  0
LINE
  8
0
 10
964.833
 20
441
 11
964.833
 21
446
  0
LINE
  8
0
 10
964.833
 20
446
 11
958.5
 21
446
  0
LINE
  8
0
 10
958.5
 20
446
 11
958.5
 21
0
  0
LINE
  8
0
 10
963.5
 20
-24
 11
1432.75
 21
-24
  0
LINE
  8
0
 10
1432.75
 20
-24
 11
1432.75
 21
-5
  0
LINE
  8
0
 10
1432.75
 20
-5
 11
963.5
 21
-5
  0
LINE
  8
0
 10
963.5
 20
-5
 11
963.5
 21
-24
  0
LINE
  8
0
 10
964.843
 20
441.004
 11
2005.66
 21
441.004
  0
LINE
  8
0
 10
2005.66
 20
441.004
 11
2005.66
 21
446.004
  0
LINE
  8
0
 10
2005.66
 20
446.004
 11
964.843
 21
446.004
  0
LINE
  8
0
 10
964.843
 20
446.004
 11
964.843
 21
441.004
  0
LINE
  8
0
 10
1356.75
 20
-24.2657
 11
1358
 21
-25.9006
  0
LINE
  8
0
 10
1358
 20
-25.9006
 11
1359.9
 21
-30.483
  0
LINE
  8
0
 10
1359.9
 20
-30.483
 11
1360.55
 21
-35.4006
  0
LINE
  8
0
 10
1360.55
 20
-35.4006
 11
1359.9
 21
-40.3182
  0
LINE
  8
0
 10
1359.9
 20
-40.3182
 11
1358
 21
-44.9006
  0
LINE
  8
0
 10
1358
 20
-44.9006
 11
1357.15
 21
-46.0178
  0
LINE
  8
0
 10
1357.15
 20
-46.0178
 11
1357.4
 21
-47.9182
  0
LINE
  8
0
 10
1357.4
 20
-47.9182
 11
1359.3
 21
-52.5006
  0
LINE
  8
0
 10
1359.3
 20
-52.5006
 11
1362.31
 21
-56.4356
  0
LINE
  8
0
 10
1362.31
 20
-56.4356
 11
1366.25
 21
-59.4551
  0
LINE
  8
0
 10
1366.25
 20
-59.4551
 11
1370.83
 21
-61.3532
  0
LINE
  8
0
 10
1370.83
 20
-61.3532
 11
1375.75
 21
-62.0006
  0
LINE
  8
0
 10
1375.75
 20
-62.0006
 11
1380.67
 21
-61.3532
  0
LINE
  8
0
 10
1380.67
 20
-61.3532
 11
1385.25
 21
-59.4551
  0
LINE
  8
0
 10
1385.25
 20
-59.4551
 11
1389.19
 21
-56.4356
  0
LINE
  8
0
 10
1389.19
 20
-56.4356
 11
1392.2
 21
-52.5006
  0
LINE
  8
0
 10
1392.2
 20
-52.5006
 11
1394.1
 21
-47.9182
  0
LINE
  8
0
 10
1394.1
 20
-47.9182
 11
1394.35
 21
-46.0178
  0
LINE
  8
0
 10
1394.35
 20
-46.0178
 11
1393.5
 21
-44.9006
  0
LINE
  8
0
 10
1393.5
 20
-44.9006
 11
1391.6
 21
-40.3182
  0
LINE
  8
0
 10
1391.6
 20
-40.3182
 11
1390.95
 21
-35.4006
  0
LINE
  8
0
 10
1390.95
 20
-35.4006
 11
1391.6
 21
-30.483
  0
LINE
  8
0
 10
1391.6
 20
-30.483
 11
1393.5
 21
-25.9006
  0
LINE
  8
0
 10
1393.5
 20
-25.9006
 11
1394.75
 21
-24.2657
  0
LINE
  8
0
 10
1394.75
 20
-24.2657
 11
1394.75
 21
-24.0006
  0
LINE
  8
0
 10
1394.75
 20
-24.0006
 11
1356.75
 21
-24.0006
  0
LINE
  8
0
 10
1356.75
 20
-24.0006
 11
1356.75
 21
-24.2657
  0
LINE
  8
0
 10
1442.75
 20
-24
 11
1912
 21
-24
  0
LINE
  8
0
 10
1912
 20
-24
 11
1912
 21
-5
  0
LINE
  8
0
 10
1912
 20
-5
 11
1442.75
 21
-5
  0
LINE
  8
0
 10
1442.75
 20
-5
 11
1442.75
 21
-24
  0
LINE
  8
0
 10
1480.75
 20
-24.2657
 11
1482
 21
-25.9006
  0
LINE
  8
0
 10
1482
 20
-25.9006
 11
1483.9
 21
-30.483
  0
LINE
  8
0
 10
1483.9
 20
-30.483
 11
1484.55
 21
-35.4006
  0
LINE
  8
0
 10
1484.55
 20
-35.4006
 11
1483.9
 21
-40.3182
  0
LINE
  8
0
 10
1483.9
 20
-40.3182
 11
1482
 21
-44.9006
  0
LINE
  8
0
 10
1482
 20
-44.9006
 11
1481.15
 21
-46.0178
  0
LINE
  8
0
 10
1481.15
 20
-46.0178
 11
1481.4
 21
-47.9182
  0
LINE
  8
0
 10
1481.4
 20
-47.9182
 11
1483.3
 21
-52.5006
  0
LINE
  8
0
 10
1483.3
 20
-52.5006
 11
1486.31
 21
-56.4356
  0
LINE
  8
0
 10
1486.31
 20
-56.4356
 11
1490.25
 21
-59.4551
  0
LINE
  8
0
 10
1490.25
 20
-59.4551
 11
1494.83
 21
-61.3532
  0
LINE
  8
0
 10
1494.83
 20
-61.3532
 11
1499.75
 21
-62.0006
  0
LINE
  8
0
 10
1499.75
 20
-62.0006
 11
1504.67
 21
-61.3532
  0
LINE
  8
0
 10
1504.67
 20
-61.3532
 11
1509.25
 21
-59.4551
  0
LINE
  8
0
 10
1509.25
 20
-59.4551
 11
1513.19
 21
-56.4356
  0
LINE
  8
0
 10
1513.19
 20
-56.4356
 11
1516.2
 21
-52.5006
  0
LINE
  8
0
 10
1516.2
 20
-52.5006
 11
1518.1
 21
-47.9182
  0
LINE
  8
0
 10
1518.1
 20
-47.9182
 11
1518.35
 21
-46.0178
  0
LINE
  8
0
 10
1518.35
 20
-46.0178
 11
1517.5
 21
-44.9006
  0
LINE
  8
0
 10
1517.5
 20
-44.9006
 11
1515.6
 21
-40.3182
  0
LINE
  8
0
 10
1515.6
 20
-40.3182
 11
1514.95
 21
-35.4006
  0
LINE
  8
0
 10
1514.95
 20
-35.4006
 11
1515.6
 21
-30.483
  0
LINE
  8
0
 10
1515.6
 20
-30.483
 11
1517.5
 21
-25.9006
  0
LINE
  8
0
 10
1517.5
 20
-25.9006
 11
1518.75
 21
-24.2657
  0
LINE
  8
0
 10
1518.75
 20
-24.2657
 11
1518.75
 21
-24.0006
  0
LINE
  8
0
 10
1518.75
 20
-24.0006
 11
1480.75
 21
-24.0006
  0
LINE
  8
0
 10
1480.75
 20
-24.0006
 11
1480.75
 21
-24.2657
  0
LINE
  8
0
 10
1537.5
 20
0
 11
1556.5
 21
0
  0
LINE
  8
0
 10
1556.5
 20
0
 11
1556.5
 21
441
  0
LINE
  8
0
 10
1556.5
 20
441
 11
1537.5
 21
441
  0
LINE
  8
0
 10
1537.5
 20
441
 11
1537.5
 21
0
  0
LINE
  8
0
 10
1917
 20
-19.0001
 11
2012
 21
-19.0001
  0
LINE
  8
0
 10
2012
 20
-19.0001
 11
2012
 21
-9.91821e-05
  0
LINE
  8
0
 10
2012
 20
-9.91821e-05
 11
1917
 21
-9.91821e-05
  0
LINE
  8
0
 10
1917
 20
-9.91821e-05
 11
1917
 21
-19.0001
  0
LINE
  8
0
 10
1993
 20
0
 11
2012
 21
0
  0
LINE
  8
0
 10
2012
 20
0
 11
2012
 21
446
  0
LINE
  8
0
 10
2012
 20
446
 11
2005.67
 21
446
  0
LINE
  8
0
 10
2005.67
 20
446
 11
2005.67
 21
441
  0
LINE
  8
0
 10
2005.67
 20
441
 11
1993
 21
441
  0
LINE
  8
0
 10
1993
 20
441
 11
1993
 21
0
  0
ENDSEC
  0
SECTION
  2
OBJECTS
  0
DICTIONARY
  0
ENDSEC
  0
EOF
